<?xml version="1.0" standalone="no"?>
<!DOCTYPE svg PUBLIC "-//W3C//DTD SVG 20010904//EN"
 "http://www.w3.org/TR/2001/REC-SVG-20010904/DTD/svg10.dtd">
<svg version="1.0" xmlns="http://www.w3.org/2000/svg"
 width="1080.000000pt" height="1080.000000pt" viewBox="0 0 1080.000000 1080.000000"
 preserveAspectRatio="xMidYMid meet">

<g transform="translate(0.000000,1080.000000) scale(0.100000,-0.100000)"
fill="#000000" stroke="none">
<path d="M3635 9108 c-2 -7 -101 -418 -220 -913 -118 -495 -218 -908 -221
-917 -5 -17 13 -18 273 -18 l278 0 73 228 c124 382 192 538 299 683 152 207
322 322 578 392 80 21 81 21 1413 24 1000 3 1332 1 1326 -8 -3 -6 -1099 -1366
-2433 -3023 -2663 -3305 -2910 -3612 -2917 -3629 -6 -18 -84 -390 -84 -404 0
-10 569 -13 2813 -13 l2813 0 28 113 c15 61 117 480 225 930 l197 817 -279 -2
-280 -3 -97 -291 c-105 -314 -157 -436 -244 -568 -65 -101 -178 -222 -262
-282 -84 -60 -230 -127 -339 -156 l-90 -23 -1519 -3 c-1453 -2 -1519 -2 -1504
15 18 21 4975 6151 5204 6437 l152 188 36 192 c20 105 39 203 42 219 l6 27
-2632 0 c-2096 0 -2631 -3 -2635 -12z"/>
</g>
</svg>
